# xmcd
#
# Track frame offsets:
#	150
#	17855
#	34112
#	55743
#	79686
#	86796
#	107702
#	132681
#	150987
#	165949
#	188779
#	203171
#	218415
#	233612
#	248116
#	265116
#	278614
#	300537
#
# Disc length: 4236
#
# Revision: 3
# Processed by: cddbd v1.5.1PL0 Copyright (c) Steve Scherf et al.
# Submitted via: CDex 1.50
# Normalized: r0:TDELIM( - ),TSWAP;r2:DSETVAR1
#
DISCID=e1108a12
DTITLE=Various Artist - Neuf Ère
DYEAR=1900
DGENRE=New Age
TTITLE0=Amália Rodrigues - Maria da Cruz
TTITLE1=Loreena McKennitt - Ancient Pines
TTITLE2=Loreena McKennitt - Courtyard Lullaby
TTITLE3=Loreena McKennitt - Kellswater
TTITLE4=Sarah Brightman - Fifth Element Opera Mix
TTITLE5=Enya - Celtic Rain
TTITLE6=Enya - A day without rain
TTITLE7=Haris Alexiou and Yiannis Parios - Kokkino Garifalo
TTITLE8=Nana Mouskouri - Les enfants du Pirée
TTITLE9=M. Crawford and Sarah Brightman - Phantom of the Opera
TTITLE10=Sarah Brightman - Think of me
TTITLE11=Dalida - Parle plus bas
TTITLE12=Enrico Macias - Aime-moi je t'aime
TTITLE13=Charles Aznavour - Désormais
TTITLE14=Edith Piaf and Gilbert Becaud - Le Bleu de tes yeux
TTITLE15=Dani Brillant - Regarde-moi
TTITLE16=Roberta Flak - Killing me softly with his song
TTITLE17=Cláudia Telles - Fim de tarde
EXTD=
EXTT0=
EXTT1=
EXTT2=
EXTT3=
EXTT4=
EXTT5=
EXTT6=
EXTT7=
EXTT8=
EXTT9=
EXTT10=
EXTT11=
EXTT12=
EXTT13=
EXTT14=
EXTT15=
EXTT16=
EXTT17=
PLAYORDER=
